<svg width="216" height="100" viewBox="0 0 216 100" fill="none" xmlns="http://www.w3.org/2000/svg">
<path d="M19.632 11.66L19.522 20.295H21.722C23.2253 20.2583 24.5636 20.24 25.737 20.24C26.9103 20.24 28.212 20.2583 29.642 20.295H29.917C30.357 20.295 30.7786 20.3133 31.182 20.35C31.622 20.35 32.0436 20.35 32.447 20.35C32.887 20.3867 33.3086 20.46 33.712 20.57C34.1153 20.6433 34.5186 20.735 34.922 20.845C35.5453 21.065 36.0586 21.395 36.462 21.835C36.8286 22.3117 37.012 22.8433 37.012 23.43C37.012 23.6133 37.012 23.8333 37.012 24.09C37.012 24.31 36.9753 24.5117 36.902 24.695C36.8286 25.0983 36.5903 25.465 36.187 25.795C36.0036 26.0517 35.6553 26.235 35.142 26.345C34.6653 26.4917 34.1886 26.5833 33.712 26.62C33.1986 26.73 32.6853 26.785 32.172 26.785H29.587L19.412 26.84L19.302 37.62L30.247 37.73H32.832C33.1253 37.73 33.4003 37.73 33.657 37.73C33.9136 37.73 34.152 37.7483 34.372 37.785C34.6653 37.8583 34.922 37.9133 35.142 37.95C35.3986 37.95 35.637 37.9867 35.857 38.06C36.297 38.2067 36.6636 38.4083 36.957 38.665C37.3236 39.0317 37.562 39.4167 37.672 39.82C37.7086 40.0033 37.727 40.205 37.727 40.425C37.7636 40.6083 37.7636 40.81 37.727 41.03C37.727 41.6167 37.5436 42.1483 37.177 42.625C36.737 43.1383 36.2236 43.4683 35.637 43.615C34.867 43.945 34.0236 44.11 33.107 44.11C32.7036 44.1467 32.282 44.165 31.842 44.165C31.402 44.165 30.9803 44.1833 30.577 44.22H30.247C27.387 44.2933 24.417 44.2933 21.337 44.22C20.6036 44.22 20.017 44.2017 19.577 44.165C19.137 44.165 18.7336 44.165 18.367 44.165C18.037 44.165 17.6886 44.165 17.322 44.165C16.9553 44.165 16.4786 44.165 15.892 44.165C15.0486 44.2383 14.352 44.0917 13.802 43.725C13.3986 43.4683 13.087 43.12 12.867 42.68C12.757 42.57 12.702 42.46 12.702 42.35C12.6653 42.2767 12.6286 42.2217 12.592 42.185C12.5553 42.1483 12.5186 42.0933 12.482 42.02C12.4086 41.8367 12.3536 41.6533 12.317 41.47C12.2803 41.25 12.262 41.0483 12.262 40.865C12.2253 40.6817 12.1886 40.4983 12.152 40.315C12.152 40.1317 12.1336 39.9483 12.097 39.765V38.885C12.097 38.7383 12.097 38.5917 12.097 38.445C12.1336 38.2983 12.152 38.1517 12.152 38.005V33.715L12.262 25.795V18.48C12.262 17.16 12.262 15.9867 12.262 14.96C12.2986 13.9333 12.3353 12.815 12.372 11.605V11.33C12.4086 10.9267 12.427 10.56 12.427 10.23C12.4636 9.86333 12.482 9.49667 12.482 9.13C12.5186 8.39666 12.7203 7.68166 13.087 6.985C13.2336 6.69166 13.3803 6.435 13.527 6.215C13.7103 5.995 13.9486 5.81167 14.242 5.665C14.792 5.335 15.3603 5.17 15.947 5.17C16.2403 5.17 16.4603 5.18833 16.607 5.225V5.17C17.267 5.17 17.7986 5.17 18.202 5.17C18.6053 5.17 18.9903 5.17 19.357 5.17C19.7603 5.17 20.182 5.17 20.622 5.17C21.062 5.13333 21.667 5.115 22.437 5.115C23.9036 5.07833 25.297 5.06 26.617 5.06C27.937 5.06 29.2936 5.07833 30.687 5.115H30.907C31.3103 5.15167 31.732 5.17 32.172 5.17C32.612 5.17 33.0336 5.18833 33.437 5.225C33.8403 5.225 34.2436 5.28 34.647 5.39C35.0503 5.46333 35.4536 5.57333 35.857 5.72C36.4803 5.90333 36.9936 6.215 37.397 6.655C37.727 7.16833 37.892 7.68167 37.892 8.195C37.892 8.415 37.892 8.635 37.892 8.855C37.892 9.03833 37.8553 9.22167 37.782 9.405C37.7453 9.77167 37.5253 10.1567 37.122 10.56C36.9753 10.6333 36.8103 10.725 36.627 10.835C36.4803 10.945 36.297 11.0367 36.077 11.11C35.857 11.1833 35.6186 11.2383 35.362 11.275C35.142 11.275 34.922 11.2933 34.702 11.33C34.4086 11.4033 34.1336 11.44 33.877 11.44C33.657 11.44 33.4003 11.44 33.107 11.44H30.632L19.632 11.495V11.66ZM72.2025 39.82C72.1659 40.4433 72.0742 41.1033 71.9275 41.8C71.8175 42.4967 71.4692 43.065 70.8825 43.505C70.4425 43.8717 69.9475 44.0917 69.3975 44.165C68.8475 44.2383 68.2975 44.2017 67.7475 44.055C67.2342 43.945 66.7392 43.7617 66.2625 43.505C65.7859 43.2117 65.4009 42.8633 65.1075 42.46C63.8609 40.92 62.7059 39.3433 61.6425 37.73C60.6159 36.08 59.5709 34.43 58.5075 32.78L53.8875 25.795C53.2642 24.805 52.6042 23.705 51.9075 22.495C51.2109 21.2483 50.4959 20.0933 49.7625 19.03L49.5975 40.04V40.535C49.5975 41.1217 49.4875 41.7083 49.2675 42.295C49.0842 42.845 48.7542 43.3217 48.2775 43.725C47.9109 44.0183 47.4342 44.22 46.8475 44.33C45.9309 44.5133 45.1609 44.4583 44.5375 44.165C43.9509 43.8717 43.4742 43.4683 43.1075 42.955C42.7775 42.4417 42.5392 41.855 42.3925 41.195C42.2825 40.4983 42.2642 39.82 42.3375 39.16V38.225L42.4475 33.935L42.5025 25.96C42.5392 24.7867 42.5575 23.595 42.5575 22.385C42.5575 21.1383 42.5575 19.8733 42.5575 18.59C42.5209 17.0133 42.5209 15.345 42.5575 13.585C42.6309 11.825 42.7042 10.175 42.7775 8.635C42.8509 7.79167 43.0525 7.07667 43.3825 6.49C43.5292 5.97666 43.9142 5.53666 44.5375 5.17C44.9409 4.91333 45.4542 4.74833 46.0775 4.675C46.7375 4.60167 47.3059 4.62 47.7825 4.73C47.9659 4.80333 48.1492 4.895 48.3325 5.005C48.5159 5.07833 48.6992 5.17 48.8825 5.28C49.0659 5.42666 49.2309 5.57333 49.3775 5.72C49.5609 5.86666 49.7259 6.03166 49.8725 6.215C50.0559 6.39833 50.2209 6.6 50.3675 6.82C50.5142 7.00333 50.6609 7.18667 50.8075 7.37C50.9175 7.59 51.0275 7.79167 51.1375 7.975C51.2475 8.15833 51.3759 8.34166 51.5225 8.525L52.1275 9.405L64.8325 29.425V25.795C64.8325 24.6217 64.8142 23.43 64.7775 22.22C64.7775 20.9733 64.7592 19.69 64.7225 18.37C64.7225 16.83 64.7225 15.18 64.7225 13.42C64.7592 11.66 64.8142 10.01 64.8875 8.47C64.8875 7.84666 65.0709 7.13166 65.4375 6.325C65.6209 5.84833 65.9325 5.46333 66.3725 5.17C66.8125 4.87666 67.3075 4.675 67.8575 4.565C68.4075 4.455 68.9575 4.455 69.5075 4.565C70.0575 4.675 70.5342 4.895 70.9375 5.225C71.0475 5.335 71.1575 5.46333 71.2675 5.61C71.3775 5.75667 71.4692 5.92167 71.5425 6.105C71.7259 6.58166 71.8359 7.00333 71.8725 7.37C71.9825 7.88333 72.0375 8.34167 72.0375 8.745C72.0375 13.3283 72.0375 18.0033 72.0375 22.77C72.0742 27.5367 72.1109 32.2117 72.1475 36.795C72.1475 37.3083 72.1659 37.8217 72.2025 38.335C72.2392 38.8117 72.2392 39.3067 72.2025 39.82ZM85.2667 11.66L85.1567 20.295H87.3567C88.8601 20.2583 90.1984 20.24 91.3717 20.24C92.5451 20.24 93.8467 20.2583 95.2767 20.295H95.5517C95.9917 20.295 96.4134 20.3133 96.8167 20.35C97.2567 20.35 97.6784 20.35 98.0817 20.35C98.5217 20.3867 98.9434 20.46 99.3467 20.57C99.7501 20.6433 100.153 20.735 100.557 20.845C101.18 21.065 101.693 21.395 102.097 21.835C102.463 22.3117 102.647 22.8433 102.647 23.43C102.647 23.6133 102.647 23.8333 102.647 24.09C102.647 24.31 102.61 24.5117 102.537 24.695C102.463 25.0983 102.225 25.465 101.822 25.795C101.638 26.0517 101.29 26.235 100.777 26.345C100.3 26.4917 99.8234 26.5833 99.3467 26.62C98.8334 26.73 98.3201 26.785 97.8067 26.785H95.2217L85.0467 26.84L84.9367 37.62L95.8817 37.73H98.4667C98.7601 37.73 99.0351 37.73 99.2917 37.73C99.5484 37.73 99.7867 37.7483 100.007 37.785C100.3 37.8583 100.557 37.9133 100.777 37.95C101.033 37.95 101.272 37.9867 101.492 38.06C101.932 38.2067 102.298 38.4083 102.592 38.665C102.958 39.0317 103.197 39.4167 103.307 39.82C103.343 40.0033 103.362 40.205 103.362 40.425C103.398 40.6083 103.398 40.81 103.362 41.03C103.362 41.6167 103.178 42.1483 102.812 42.625C102.372 43.1383 101.858 43.4683 101.272 43.615C100.502 43.945 99.6584 44.11 98.7417 44.11C98.3384 44.1467 97.9167 44.165 97.4767 44.165C97.0367 44.165 96.6151 44.1833 96.2117 44.22H95.8817C93.0217 44.2933 90.0517 44.2933 86.9717 44.22C86.2384 44.22 85.6517 44.2017 85.2117 44.165C84.7717 44.165 84.3684 44.165 84.0017 44.165C83.6717 44.165 83.3234 44.165 82.9567 44.165C82.5901 44.165 82.1134 44.165 81.5267 44.165C80.6834 44.2383 79.9867 44.0917 79.4367 43.725C79.0334 43.4683 78.7217 43.12 78.5017 42.68C78.3917 42.57 78.3367 42.46 78.3367 42.35C78.3001 42.2767 78.2634 42.2217 78.2267 42.185C78.1901 42.1483 78.1534 42.0933 78.1167 42.02C78.0434 41.8367 77.9884 41.6533 77.9517 41.47C77.9151 41.25 77.8967 41.0483 77.8967 40.865C77.8601 40.6817 77.8234 40.4983 77.7867 40.315C77.7867 40.1317 77.7684 39.9483 77.7317 39.765V38.885C77.7317 38.7383 77.7317 38.5917 77.7317 38.445C77.7684 38.2983 77.7867 38.1517 77.7867 38.005V33.715L77.8967 25.795V18.48C77.8967 17.16 77.8967 15.9867 77.8967 14.96C77.9334 13.9333 77.9701 12.815 78.0067 11.605V11.33C78.0434 10.9267 78.0617 10.56 78.0617 10.23C78.0984 9.86333 78.1167 9.49667 78.1167 9.13C78.1534 8.39666 78.3551 7.68166 78.7217 6.985C78.8684 6.69166 79.0151 6.435 79.1617 6.215C79.3451 5.995 79.5834 5.81167 79.8767 5.665C80.4267 5.335 80.9951 5.17 81.5817 5.17C81.8751 5.17 82.0951 5.18833 82.2417 5.225V5.17C82.9017 5.17 83.4334 5.17 83.8367 5.17C84.2401 5.17 84.6251 5.17 84.9917 5.17C85.3951 5.17 85.8167 5.17 86.2567 5.17C86.6967 5.13333 87.3017 5.115 88.0717 5.115C89.5384 5.07833 90.9317 5.06 92.2517 5.06C93.5717 5.06 94.9284 5.07833 96.3217 5.115H96.5417C96.9451 5.15167 97.3667 5.17 97.8067 5.17C98.2467 5.17 98.6684 5.18833 99.0717 5.225C99.4751 5.225 99.8784 5.28 100.282 5.39C100.685 5.46333 101.088 5.57333 101.492 5.72C102.115 5.90333 102.628 6.215 103.032 6.655C103.362 7.16833 103.527 7.68167 103.527 8.195C103.527 8.415 103.527 8.635 103.527 8.855C103.527 9.03833 103.49 9.22167 103.417 9.405C103.38 9.77167 103.16 10.1567 102.757 10.56C102.61 10.6333 102.445 10.725 102.262 10.835C102.115 10.945 101.932 11.0367 101.712 11.11C101.492 11.1833 101.253 11.2383 100.997 11.275C100.777 11.275 100.557 11.2933 100.337 11.33C100.043 11.4033 99.7684 11.44 99.5117 11.44C99.2917 11.44 99.0351 11.44 98.7417 11.44H96.2667L85.2667 11.495V11.66ZM136.297 41.58C136.334 41.9467 136.297 42.295 136.187 42.625C136.114 42.845 136.004 43.0283 135.857 43.175C135.747 43.3217 135.601 43.4683 135.417 43.615C135.087 43.835 134.684 44.0367 134.207 44.22C133.914 44.2933 133.621 44.3483 133.327 44.385C133.071 44.4583 132.796 44.4583 132.502 44.385C131.916 44.3483 131.402 44.1283 130.962 43.725C130.339 43.2117 129.826 42.6433 129.422 42.02C129.239 41.7267 129.037 41.3967 128.817 41.03C128.597 40.6633 128.396 40.2783 128.212 39.875L122.107 28.27C121.814 28.27 121.521 28.2883 121.227 28.325C120.934 28.325 120.641 28.3433 120.347 28.38C119.577 28.4533 118.844 28.4717 118.147 28.435C117.487 28.3983 116.791 28.3983 116.057 28.435H115.012V38.39C115.012 38.6833 114.994 38.9583 114.957 39.215C114.957 39.4717 114.957 39.7467 114.957 40.04C114.957 40.2233 114.939 40.4617 114.902 40.755C114.902 41.0483 114.884 41.3233 114.847 41.58C114.774 41.9833 114.609 42.405 114.352 42.845C114.096 43.2483 113.747 43.5967 113.307 43.89C112.537 44.3667 111.602 44.495 110.502 44.275C110.026 44.165 109.567 43.9817 109.127 43.725C108.981 43.615 108.852 43.4867 108.742 43.34C108.632 43.1567 108.541 42.9733 108.467 42.79C108.394 42.6067 108.321 42.4233 108.247 42.24C108.211 42.02 108.156 41.8183 108.082 41.635C107.972 41.2683 107.917 40.92 107.917 40.59V9.35C107.917 9.13 107.917 8.91 107.917 8.69C107.954 8.43333 107.991 8.21333 108.027 8.03C108.064 7.62667 108.192 7.22333 108.412 6.82C108.522 6.38 108.706 6.06833 108.962 5.885C109.182 5.665 109.512 5.48166 109.952 5.335C110.429 5.15167 111.107 5.07833 111.987 5.115C113.637 5.15167 115.269 5.17 116.882 5.17C118.496 5.17 120.109 5.20666 121.722 5.28C122.786 5.35333 123.904 5.48167 125.077 5.665C126.287 5.81167 127.406 6.08667 128.432 6.49C129.092 6.74667 129.697 7.00333 130.247 7.26C130.944 7.66333 131.494 8.04833 131.897 8.415C133.181 9.58833 134.152 11 134.812 12.65C135.472 14.3 135.802 15.9683 135.802 17.655C135.802 19.635 135.326 21.45 134.372 23.1C133.456 24.75 131.971 25.9783 129.917 26.785C129.844 26.8583 129.734 26.9133 129.587 26.95C129.477 26.95 129.386 26.9683 129.312 27.005L134.372 37.18L134.867 38.06C134.941 38.2067 135.032 38.3717 135.142 38.555C135.252 38.7383 135.344 38.9217 135.417 39.105C135.527 39.2883 135.619 39.49 135.692 39.71C135.802 39.93 135.912 40.1317 136.022 40.315C136.132 40.8283 136.224 41.25 136.297 41.58ZM122.547 22C123.207 22 123.831 21.89 124.417 21.67C125.041 21.4133 125.591 21.0833 126.067 20.68C126.581 20.2767 127.002 19.8183 127.332 19.305C127.662 18.755 127.846 18.1683 127.882 17.545C128.029 15.7117 127.552 14.355 126.452 13.475C125.352 12.5583 123.904 12.0633 122.107 11.99C121.044 11.9167 119.871 11.88 118.587 11.88C117.341 11.88 116.149 11.88 115.012 11.88C115.049 13.3833 115.049 14.9233 115.012 16.5C115.012 18.04 115.012 19.8733 115.012 22H122.547ZM169.83 30.91C169.83 32.01 169.775 33.1283 169.665 34.265C169.555 35.365 169.335 36.4467 169.005 37.51C168.675 38.5367 168.18 39.5267 167.52 40.48C166.86 41.3967 165.961 42.2033 164.825 42.9C164.275 43.2667 163.615 43.5783 162.845 43.835C162.111 44.055 161.323 44.2383 160.48 44.385C159.673 44.5683 158.866 44.6783 158.06 44.715C157.253 44.7883 156.501 44.8067 155.805 44.77C152.505 44.66 149.828 43.8717 147.775 42.405C145.758 40.9017 144.2 39.05 143.1 36.85C142.036 34.65 141.34 32.2667 141.01 29.7C140.716 27.0967 140.661 24.6217 140.845 22.275C140.955 20.8817 141.193 19.3783 141.56 17.765C141.963 16.1517 142.531 14.5933 143.265 13.09C144.035 11.5867 144.97 10.23 146.07 9.02C147.206 7.81 148.545 6.89333 150.085 6.27C151.515 5.68333 153.073 5.31667 154.76 5.17C156.483 4.98667 158.17 5.04167 159.82 5.335C161.506 5.62833 163.065 6.16 164.495 6.93C165.961 7.7 167.116 8.72666 167.96 10.01C168.546 10.9633 169.005 12.1183 169.335 13.475C169.665 14.8317 169.72 16.1333 169.5 17.38C169.316 18.48 168.931 19.25 168.345 19.69C167.758 20.0933 167.116 20.2583 166.42 20.185C165.723 20.075 165.045 19.7817 164.385 19.305C163.761 18.7917 163.34 18.15 163.12 17.38C162.863 16.5367 162.551 15.7667 162.185 15.07C161.818 14.3367 161.25 13.7317 160.48 13.255C159.6 12.705 158.665 12.3933 157.675 12.32C156.721 12.2467 155.786 12.3567 154.87 12.65C153.99 12.9433 153.146 13.4017 152.34 14.025C151.57 14.6483 150.928 15.3633 150.415 16.17C149.791 17.0867 149.315 18.095 148.985 19.195C148.655 20.2583 148.416 21.3767 148.27 22.55C148.123 23.6867 148.068 24.8417 148.105 26.015C148.178 27.1517 148.325 28.2517 148.545 29.315C148.948 31.1117 149.571 32.7983 150.415 34.375C150.745 34.9617 151.185 35.4933 151.735 35.97C152.321 36.41 152.963 36.7767 153.66 37.07C154.356 37.3267 155.09 37.4917 155.86 37.565C156.63 37.6383 157.363 37.5833 158.06 37.4C159.05 37.1433 159.856 36.8133 160.48 36.41C161.103 35.97 161.598 35.4567 161.965 34.87C162.331 34.2833 162.57 33.6417 162.68 32.945C162.826 32.2483 162.9 31.515 162.9 30.745V30.69C162.423 30.69 162.001 30.69 161.635 30.69C161.268 30.6533 160.993 30.635 160.81 30.635C160.003 30.635 159.215 30.4883 158.445 30.195C157.785 29.975 157.29 29.6267 156.96 29.15C156.593 28.7467 156.41 28.2517 156.41 27.665C156.41 27.445 156.41 27.2433 156.41 27.06C156.446 26.84 156.483 26.62 156.52 26.4C156.63 26.1067 156.868 25.74 157.235 25.3C157.455 25.1167 157.803 24.97 158.28 24.86C158.5 24.7867 158.72 24.7317 158.94 24.695C159.16 24.6217 159.416 24.5667 159.71 24.53C159.93 24.4933 160.168 24.475 160.425 24.475C160.681 24.475 160.938 24.475 161.195 24.475H166.2C166.603 24.4383 167.061 24.4933 167.575 24.64C168.125 24.75 168.546 24.9333 168.84 25.19C168.95 25.3367 169.06 25.4833 169.17 25.63C169.28 25.7767 169.371 25.9417 169.445 26.125C169.591 26.5283 169.683 26.9317 169.72 27.335C169.756 27.555 169.775 27.7933 169.775 28.05C169.811 28.27 169.83 28.4717 169.83 28.655V30.91ZM203.84 7.425C203.877 7.60833 203.877 7.79167 203.84 7.975C203.84 8.15833 203.785 8.36 203.675 8.58C203.529 9.09333 203.364 9.55166 203.18 9.955C202.96 10.4683 202.685 10.9083 202.355 11.275C202.209 11.495 202.062 11.715 201.915 11.935C201.805 12.1183 201.695 12.3017 201.585 12.485L200.87 13.42L193.83 23.595L192.565 25.19V39.82C192.492 40.0033 192.455 40.1867 192.455 40.37C192.455 40.5533 192.437 40.755 192.4 40.975C192.327 41.1583 192.272 41.3417 192.235 41.525C192.199 41.6717 192.144 41.8367 192.07 42.02C191.997 42.1667 191.96 42.2767 191.96 42.35C191.924 42.4233 191.887 42.4783 191.85 42.515C191.85 42.5517 191.832 42.6067 191.795 42.68C191.575 43.0467 191.264 43.3767 190.86 43.67C190.054 44.0733 189.137 44.165 188.11 43.945C187.524 43.8717 187.084 43.6883 186.79 43.395C186.607 43.285 186.46 43.1567 186.35 43.01C186.24 42.8633 186.13 42.6983 186.02 42.515C185.947 42.295 185.874 42.0933 185.8 41.91C185.727 41.7267 185.672 41.5433 185.635 41.36C185.562 41.1767 185.525 41.0117 185.525 40.865C185.525 40.6817 185.525 40.5167 185.525 40.37V25.355L184.315 23.485L177.165 13.365L176.56 12.375C176.34 12.045 176.065 11.66 175.735 11.22C175.442 10.8167 175.185 10.3767 174.965 9.9C174.819 9.68 174.69 9.46 174.58 9.24C174.507 8.98333 174.434 8.72666 174.36 8.47C174.25 8.10333 174.232 7.73667 174.305 7.37C174.415 6.89333 174.635 6.49 174.965 6.16C175.332 5.83 175.717 5.57333 176.12 5.39C176.634 5.02333 177.22 4.87667 177.88 4.95C178.284 4.95 178.632 5.02333 178.925 5.17C179.219 5.31667 179.512 5.48167 179.805 5.665C180.135 5.92166 180.447 6.19666 180.74 6.49C181.07 6.78333 181.364 7.095 181.62 7.425C181.914 7.79167 182.189 8.14 182.445 8.47C182.702 8.76333 182.959 9.11167 183.215 9.515L183.38 9.735C184.26 10.9083 185.085 12.045 185.855 13.145C186.625 14.2083 187.432 15.3633 188.275 16.61C188.349 16.6833 188.459 16.83 188.605 17.05C188.752 17.27 188.917 17.5267 189.1 17.82C189.247 17.5633 189.375 17.3433 189.485 17.16C189.632 16.94 189.742 16.7933 189.815 16.72C190.659 15.4733 191.465 14.3 192.235 13.2C193.005 12.1 193.83 10.9633 194.71 9.79L194.82 9.57C195.114 9.24 195.37 8.91 195.59 8.58C195.847 8.21333 196.122 7.84666 196.415 7.48C196.892 6.82 197.534 6.25166 198.34 5.775C198.927 5.37166 199.532 5.115 200.155 5.005C200.852 4.93166 201.457 5.07833 201.97 5.445C202.19 5.59167 202.392 5.72 202.575 5.83C202.795 5.94 202.979 6.06833 203.125 6.215C203.419 6.545 203.657 6.94833 203.84 7.425Z" fill="black"/>
<path d="M50.5788 89.4267C51.0555 90.49 51.0738 91.535 50.6338 92.5617C50.1938 93.5517 49.4972 94.4683 48.5438 95.3117C47.5905 96.155 46.4905 96.8883 45.2438 97.5117C44.0338 98.135 42.8788 98.575 41.7788 98.8317C40.5688 99.0883 39.2855 99.1983 37.9288 99.1617C36.6088 99.1617 35.2705 98.9967 33.9138 98.6667C32.5938 98.3733 31.2922 97.9333 30.0088 97.3467C28.7622 96.7233 27.6072 95.9717 26.5438 95.0917C25.2605 94.0283 24.2522 92.7633 23.5188 91.2967C22.8222 89.7933 22.3088 88.1983 21.9788 86.5117C21.6488 84.825 21.4655 83.1383 21.4288 81.4517C21.4288 79.7283 21.4838 78.115 21.5938 76.6117C21.7038 75.255 21.9788 73.8433 22.4188 72.3767C22.8588 70.91 23.4638 69.48 24.2338 68.0867C25.0405 66.6567 25.9938 65.3367 27.0938 64.1267C28.2305 62.9167 29.5505 61.89 31.0538 61.0467C32.1905 60.3867 33.4555 59.9467 34.8488 59.7267C36.2788 59.47 37.7088 59.415 39.1388 59.5617C40.6055 59.6717 41.9805 59.9833 43.2638 60.4967C44.5838 60.9733 45.7022 61.6333 46.6188 62.4767C47.2055 62.99 47.8105 63.705 48.4338 64.6217C49.0938 65.5383 49.5705 66.4733 49.8638 67.4267C50.1572 68.38 50.1572 69.2783 49.8638 70.1217C49.6072 70.9283 48.8738 71.4783 47.6638 71.7717C47.1505 71.9183 46.6922 71.955 46.2888 71.8817C45.8855 71.7717 45.5188 71.6067 45.1888 71.3867C44.8588 71.13 44.5472 70.8367 44.2538 70.5067C43.9605 70.1767 43.6855 69.8467 43.4288 69.5167C42.5488 68.4533 41.5222 67.7383 40.3488 67.3717C39.1755 66.9683 38.0022 66.8767 36.8288 67.0967C35.6922 67.28 34.6105 67.7567 33.5838 68.5267C32.5938 69.26 31.8238 70.2133 31.2738 71.3867C30.6872 72.6333 30.2105 74.0083 29.8438 75.5117C29.5138 76.9783 29.3305 78.4817 29.2938 80.0217C29.2572 81.525 29.3855 82.9917 29.6788 84.4217C30.0088 85.8517 30.5588 87.1167 31.3288 88.2167C31.9155 89.0967 32.6305 89.8117 33.4738 90.3617C34.3538 90.9117 35.2888 91.2967 36.2788 91.5167C37.2688 91.7367 38.2588 91.7733 39.2488 91.6267C40.2755 91.48 41.2655 91.15 42.2188 90.6367C42.5122 90.49 42.8238 90.2883 43.1538 90.0317C43.5205 89.7383 43.8872 89.445 44.2538 89.1517C44.6205 88.8583 44.9872 88.5833 45.3538 88.3267C45.7572 88.07 46.1788 87.8867 46.6188 87.7767C47.2788 87.5567 47.9938 87.575 48.7638 87.8317C49.5705 88.0883 50.1755 88.62 50.5788 89.4267ZM83.7529 96.2467C83.7895 96.6133 83.7529 96.9617 83.6429 97.2917C83.5695 97.5117 83.4595 97.695 83.3129 97.8417C83.2029 97.9883 83.0562 98.135 82.8729 98.2817C82.5429 98.5017 82.1395 98.7033 81.6629 98.8867C81.3695 98.96 81.0762 99.015 80.7829 99.0517C80.5262 99.125 80.2512 99.125 79.9579 99.0517C79.3712 99.015 78.8579 98.795 78.4179 98.3917C77.7945 97.8783 77.2812 97.31 76.8779 96.6867C76.6945 96.3933 76.4929 96.0633 76.2729 95.6967C76.0529 95.33 75.8512 94.945 75.6679 94.5417L69.5629 82.9367C69.2695 82.9367 68.9762 82.955 68.6829 82.9917C68.3895 82.9917 68.0962 83.01 67.8029 83.0467C67.0329 83.12 66.2995 83.1383 65.6029 83.1017C64.9429 83.065 64.2462 83.065 63.5129 83.1017H62.4679V93.0567C62.4679 93.35 62.4495 93.625 62.4129 93.8817C62.4129 94.1383 62.4129 94.4133 62.4129 94.7067C62.4129 94.89 62.3945 95.1283 62.3579 95.4217C62.3579 95.715 62.3395 95.99 62.3029 96.2467C62.2295 96.65 62.0645 97.0717 61.8079 97.5117C61.5512 97.915 61.2029 98.2633 60.7629 98.5567C59.9929 99.0333 59.0579 99.1617 57.9579 98.9417C57.4812 98.8317 57.0229 98.6483 56.5829 98.3917C56.4362 98.2817 56.3079 98.1533 56.1979 98.0067C56.0879 97.8233 55.9962 97.64 55.9229 97.4567C55.8495 97.2733 55.7762 97.09 55.7029 96.9067C55.6662 96.6867 55.6112 96.485 55.5379 96.3017C55.4279 95.935 55.3729 95.5867 55.3729 95.2567V64.0167C55.3729 63.7967 55.3729 63.5767 55.3729 63.3567C55.4095 63.1 55.4462 62.88 55.4829 62.6967C55.5195 62.2933 55.6479 61.89 55.8679 61.4867C55.9779 61.0467 56.1612 60.735 56.4179 60.5517C56.6379 60.3317 56.9679 60.1483 57.4079 60.0017C57.8845 59.8183 58.5629 59.745 59.4429 59.7817C61.0929 59.8183 62.7245 59.8367 64.3379 59.8367C65.9512 59.8367 67.5645 59.8733 69.1779 59.9467C70.2412 60.02 71.3595 60.1483 72.5329 60.3317C73.7429 60.4783 74.8612 60.7533 75.8879 61.1567C76.5479 61.4133 77.1529 61.67 77.7029 61.9267C78.3995 62.33 78.9495 62.715 79.3529 63.0817C80.6362 64.255 81.6079 65.6667 82.2679 67.3167C82.9279 68.9667 83.2579 70.635 83.2579 72.3217C83.2579 74.3017 82.7812 76.1167 81.8279 77.7667C80.9112 79.4167 79.4262 80.645 77.3729 81.4517C77.2995 81.525 77.1895 81.58 77.0429 81.6167C76.9329 81.6167 76.8412 81.635 76.7679 81.6717L81.8279 91.8467L82.3229 92.7267C82.3962 92.8733 82.4879 93.0383 82.5979 93.2217C82.7079 93.405 82.7995 93.5883 82.8729 93.7717C82.9829 93.955 83.0745 94.1567 83.1479 94.3767C83.2579 94.5967 83.3679 94.7983 83.4779 94.9817C83.5879 95.495 83.6795 95.9167 83.7529 96.2467ZM70.0029 76.6667C70.6629 76.6667 71.2862 76.5567 71.8729 76.3367C72.4962 76.08 73.0462 75.75 73.5229 75.3467C74.0362 74.9433 74.4579 74.485 74.7879 73.9717C75.1179 73.4217 75.3012 72.835 75.3379 72.2117C75.4845 70.3783 75.0079 69.0217 73.9079 68.1417C72.8079 67.225 71.3595 66.73 69.5629 66.6567C68.4995 66.5833 67.3262 66.5467 66.0429 66.5467C64.7962 66.5467 63.6045 66.5467 62.4679 66.5467C62.5045 68.05 62.5045 69.59 62.4679 71.1667C62.4679 72.7067 62.4679 74.54 62.4679 76.6667H70.0029ZM118.22 62.7517C118.44 64.5117 118.569 66.565 118.605 68.9117C118.642 71.2217 118.605 73.5683 118.495 75.9517C118.422 78.2983 118.257 80.535 118 82.6617C117.744 84.7517 117.432 86.4383 117.065 87.7217C116.809 88.4917 116.497 89.2983 116.13 90.1417C115.8 90.9483 115.434 91.6817 115.03 92.3417C114.444 93.3317 113.729 94.2117 112.885 94.9817C112.042 95.715 111.107 96.3567 110.08 96.9067C109.09 97.42 108.027 97.8233 106.89 98.1167C105.79 98.41 104.69 98.575 103.59 98.6117C101.647 98.685 99.7952 98.41 98.0352 97.7867C96.3119 97.1267 94.7169 96.1 93.2502 94.7067C92.1502 93.6433 91.2702 92.5067 90.6102 91.2967C89.9502 90.0867 89.4369 88.8217 89.0702 87.5017C88.7036 86.145 88.4652 84.7517 88.3552 83.3217C88.2819 81.8917 88.2452 80.425 88.2452 78.9217C88.2452 78.225 88.2269 77.3633 88.1902 76.3367C88.1902 75.2733 88.1902 74.1917 88.1902 73.0917C88.1902 71.955 88.1902 70.855 88.1902 69.7917C88.1902 68.7283 88.2086 67.83 88.2452 67.0967C88.2452 66.62 88.2452 66.1067 88.2452 65.5567C88.2452 64.97 88.2636 64.4017 88.3002 63.8517C88.3736 63.265 88.4836 62.715 88.6302 62.2017C88.7769 61.6517 88.9969 61.1567 89.2902 60.7167C89.6202 60.24 90.0786 59.8917 90.6652 59.6717C91.2519 59.4517 91.8569 59.3417 92.4802 59.3417C93.1402 59.3417 93.7636 59.47 94.3502 59.7267C94.9369 59.9833 95.4136 60.35 95.7802 60.8267C95.9636 61.12 96.0919 61.4133 96.1652 61.7067C96.2386 62 96.2936 62.33 96.3302 62.6967C96.4036 63.9067 96.4402 65.2817 96.4402 66.8217C96.4769 68.3617 96.4769 69.865 96.4402 71.3317C96.4402 72.7617 96.4219 74.0817 96.3852 75.2917C96.3486 76.5017 96.3302 77.4 96.3302 77.9867C96.3302 80.1867 96.4402 82.185 96.6602 83.9817C96.8802 85.7417 97.3936 87.2083 98.2002 88.3817C98.9336 89.445 99.7952 90.1233 100.785 90.4167C101.775 90.71 102.765 90.8017 103.755 90.6917C104.672 90.5817 105.589 90.2517 106.505 89.7017C107.459 89.115 108.21 88.2717 108.76 87.1717C108.98 86.7683 109.164 86.31 109.31 85.7967C109.457 85.2833 109.567 84.8067 109.64 84.3667C109.787 82.9733 109.915 81.36 110.025 79.5267C110.135 77.6567 110.227 75.75 110.3 73.8067C110.374 71.8633 110.41 69.9567 110.41 68.0867C110.41 66.2167 110.392 64.53 110.355 63.0267C110.429 62.3667 110.63 61.7617 110.96 61.2117C111.254 60.735 111.675 60.3133 112.225 59.9467C112.775 59.58 113.527 59.3967 114.48 59.3967C115.25 59.4333 115.874 59.635 116.35 60.0017C116.827 60.3317 117.212 60.6983 117.505 61.1017C117.835 61.5783 118.074 62.1283 118.22 62.7517ZM151.539 82.6617C151.722 83.175 151.85 83.7617 151.924 84.4217C152.034 85.045 152.089 85.6867 152.089 86.3467C152.089 87.0067 152.034 87.6667 151.924 88.3267C151.85 88.95 151.74 89.5 151.594 89.9767C151.007 92.03 149.834 93.7533 148.074 95.1467C146.314 96.5033 144.297 97.4933 142.024 98.1167C139.787 98.74 137.459 98.96 135.039 98.7767C132.655 98.5933 130.529 97.9883 128.659 96.9617C127.485 96.3017 126.477 95.495 125.634 94.5417C124.79 93.5883 124.075 92.525 123.489 91.3517C123.269 90.9483 123.122 90.49 123.049 89.9767C123.012 89.4267 123.067 88.9133 123.214 88.4367C123.36 87.9233 123.599 87.4833 123.929 87.1167C124.259 86.7133 124.717 86.4383 125.304 86.2917C125.67 86.2183 126.074 86.1817 126.514 86.1817C126.99 86.1817 127.449 86.255 127.889 86.4017C128.329 86.5117 128.732 86.7133 129.099 87.0067C129.465 87.2633 129.759 87.63 129.979 88.1067C130.382 88.8767 130.95 89.5917 131.684 90.2517C132.454 90.875 133.26 91.3883 134.104 91.7917C135.314 92.195 136.524 92.36 137.734 92.2867C138.98 92.2133 140.099 91.9383 141.089 91.4617C142.115 90.985 142.94 90.3433 143.564 89.5367C144.187 88.6933 144.499 87.74 144.499 86.6767C144.499 85.7967 144.37 85.0817 144.114 84.5317C143.857 83.945 143.49 83.4683 143.014 83.1017C142.574 82.6983 142.024 82.3683 141.364 82.1117C140.74 81.855 140.044 81.635 139.274 81.4517C138.394 81.2683 137.495 81.14 136.579 81.0667C135.699 80.9933 134.8 80.9017 133.884 80.7917C132.967 80.6817 132.069 80.535 131.189 80.3517C130.309 80.1683 129.447 79.8933 128.604 79.5267C126.917 78.83 125.634 77.7667 124.754 76.3367C123.874 74.9067 123.342 73.3667 123.159 71.7167C123.012 70.0667 123.214 68.435 123.764 66.8217C124.314 65.1717 125.194 63.76 126.404 62.5867C127.577 61.5233 128.97 60.7717 130.584 60.3317C132.234 59.855 134.049 59.58 136.029 59.5067C137.129 59.47 138.229 59.5067 139.329 59.6167C140.465 59.7267 141.547 59.91 142.574 60.1667C143.637 60.4233 144.609 60.7533 145.489 61.1567C146.405 61.56 147.194 62.0367 147.854 62.5867C148.33 62.9533 148.807 63.4483 149.284 64.0717C149.76 64.6583 150.127 65.3 150.384 65.9967C150.64 66.6567 150.714 67.2983 150.604 67.9217C150.53 68.545 150.145 69.0767 149.449 69.5167C148.862 69.8833 148.294 70.0483 147.744 70.0117C147.23 69.9383 146.735 69.7733 146.259 69.5167C145.782 69.2233 145.324 68.8933 144.884 68.5267C144.444 68.16 144.04 67.83 143.674 67.5367C142.684 66.8033 141.455 66.3083 139.989 66.0517C138.522 65.795 137.147 65.74 135.864 65.8867C135.057 65.9967 134.305 66.18 133.609 66.4367C132.912 66.6933 132.307 67.0417 131.794 67.4817C131.317 67.9217 130.932 68.4717 130.639 69.1317C130.382 69.755 130.29 70.47 130.364 71.2767C130.4 71.8633 130.565 72.3583 130.859 72.7617C131.189 73.165 131.574 73.495 132.014 73.7517C132.49 74.0083 133.004 74.21 133.554 74.3567C134.104 74.5033 134.654 74.6133 135.204 74.6867C136.854 74.9067 138.504 75.0717 140.154 75.1817C141.804 75.2917 143.417 75.6583 144.994 76.2817C146.607 76.905 147.982 77.7483 149.119 78.8117C150.255 79.875 151.062 81.1583 151.539 82.6617ZM185.551 62.4217C185.587 62.6783 185.606 62.9167 185.606 63.1367C185.606 63.3567 185.606 63.5767 185.606 63.7967V66.0517L185.276 94.5967V95.1467C185.276 95.3667 185.221 95.6967 185.111 96.1367C185.074 96.32 185.019 96.5217 184.946 96.7417C184.872 96.925 184.799 97.1267 184.726 97.3467C184.542 97.7867 184.286 98.1167 183.956 98.3367C183.662 98.63 183.186 98.8317 182.526 98.9417C181.499 99.1617 180.564 99.07 179.721 98.6667C179.244 98.3733 178.914 98.0067 178.731 97.5667C178.657 97.4933 178.584 97.3833 178.511 97.2367C178.511 97.1633 178.474 97.0533 178.401 96.9067C178.327 96.7233 178.272 96.54 178.236 96.3567C178.199 96.1367 178.162 95.9167 178.126 95.6967C178.126 95.5133 178.107 95.33 178.071 95.1467C178.071 94.9633 178.052 94.78 178.016 94.5967C177.942 94.4133 177.906 94.2667 177.906 94.1567C177.906 94.01 177.906 93.845 177.906 93.6617C177.979 93.515 178.016 93.24 178.016 92.8367L178.071 88.4917L178.126 81.5617H175.156L163.991 81.6167L163.881 94.5967V95.1467C163.881 95.3667 163.826 95.6967 163.716 96.1367C163.679 96.32 163.624 96.5217 163.551 96.7417C163.477 96.925 163.404 97.1267 163.331 97.3467C163.147 97.7867 162.891 98.1167 162.561 98.3367C162.267 98.63 161.791 98.8317 161.131 98.9417C160.104 99.1617 159.169 99.07 158.326 98.6667C157.959 98.4467 157.611 98.08 157.281 97.5667C157.207 97.42 157.171 97.31 157.171 97.2367L157.006 96.9067C156.932 96.7233 156.877 96.54 156.841 96.3567C156.804 96.1367 156.767 95.9167 156.731 95.6967C156.731 95.5133 156.712 95.33 156.676 95.1467C156.639 94.9633 156.602 94.78 156.566 94.5967C156.529 94.3033 156.529 93.9917 156.566 93.6617V92.8367L156.621 88.4917L156.731 80.4067C156.767 79.2333 156.786 78.0233 156.786 76.7767C156.786 75.53 156.786 74.2467 156.786 72.9267C156.749 71.6067 156.731 70.4333 156.731 69.4067C156.767 68.38 156.822 67.225 156.896 65.9417V65.7217C156.932 65.355 156.951 64.9883 156.951 64.6217C156.951 64.2183 156.969 63.815 157.006 63.4117C157.042 63.045 157.097 62.6967 157.171 62.3667C157.281 62 157.427 61.6333 157.611 61.2667C157.721 60.9733 157.867 60.735 158.051 60.5517C158.234 60.3317 158.454 60.13 158.711 59.9467C159.297 59.6533 159.884 59.5067 160.471 59.5067C160.764 59.5067 161.021 59.525 161.241 59.5617C161.461 59.5617 161.681 59.58 161.901 59.6167C162.341 59.6533 162.762 59.8733 163.166 60.2767C163.459 60.5333 163.661 60.8267 163.771 61.1567C163.954 61.6333 164.064 62.055 164.101 62.4217C164.137 62.6783 164.156 62.9167 164.156 63.1367C164.156 63.3567 164.156 63.5767 164.156 63.7967V66.0517L164.046 75.1267C164.339 75.1267 164.669 75.1267 165.036 75.1267C165.439 75.1267 165.897 75.1083 166.411 75.0717C168.317 75.0717 170.206 75.09 172.076 75.1267C173.982 75.1633 175.981 75.1817 178.071 75.1817H178.126C178.126 73.5317 178.126 71.955 178.126 70.4517C178.162 68.9483 178.217 67.3717 178.291 65.7217C178.291 65.355 178.291 64.9883 178.291 64.6217C178.327 64.2183 178.364 63.815 178.401 63.4117C178.437 63.045 178.492 62.6967 178.566 62.3667C178.676 62 178.822 61.6333 179.006 61.2667C179.079 60.9733 179.207 60.735 179.391 60.5517C179.611 60.3317 179.867 60.13 180.161 59.9467C180.674 59.6533 181.242 59.5067 181.866 59.5067C182.159 59.5067 182.416 59.525 182.636 59.5617C182.892 59.5617 183.112 59.58 183.296 59.6167C183.809 59.69 184.231 59.91 184.561 60.2767C184.854 60.46 185.056 60.7533 185.166 61.1567C185.239 61.3767 185.294 61.5967 185.331 61.8167C185.404 62 185.477 62.2017 185.551 62.4217Z" fill="black"/>
</svg>
